<svg width="24" height="24" viewBox="0 0 24 24" fill="none" xmlns="http://www.w3.org/2000/svg">
<mask id="mask0_2346_34497" style="mask-type:alpha" maskUnits="userSpaceOnUse" x="0" y="0" width="24" height="24">
<rect width="24" height="24" fill="#D9D9D9"/>
</mask>
<g mask="url(#mask0_2346_34497)">
<path d="M9.25313 22L8.85313 18.8C8.63646 18.7167 8.43229 18.6167 8.24062 18.5C8.04896 18.3833 7.86146 18.2583 7.67812 18.125L4.70312 19.375L1.95312 14.625L4.52813 12.675C4.51146 12.5583 4.50312 12.4458 4.50312 12.3375V11.6625C4.50312 11.5542 4.51146 11.4417 4.52813 11.325L1.95312 9.375L4.70312 4.625L7.67812 5.875C7.86146 5.74167 8.05313 5.61667 8.25313 5.5C8.45312 5.38333 8.65313 5.28333 8.85313 5.2L9.25313 2H14.7531L15.1531 5.2C15.3698 5.28333 15.574 5.38333 15.7656 5.5C15.9573 5.61667 16.1448 5.74167 16.3281 5.875L19.3031 4.625L22.0531 9.375L19.4781 11.325C19.4948 11.4417 19.5031 11.5542 19.5031 11.6625V12.3375C19.5031 12.4458 19.4865 12.5583 19.4531 12.675L22.0281 14.625L19.2781 19.375L16.3281 18.125C16.1448 18.2583 15.9531 18.3833 15.7531 18.5C15.5531 18.6167 15.3531 18.7167 15.1531 18.8L14.7531 22H9.25313ZM11.0031 20H12.9781L13.3281 17.35C13.8448 17.2167 14.324 17.0208 14.7656 16.7625C15.2073 16.5042 15.6115 16.1917 15.9781 15.825L18.4531 16.85L19.4281 15.15L17.2781 13.525C17.3615 13.2917 17.4198 13.0458 17.4531 12.7875C17.4865 12.5292 17.5031 12.2667 17.5031 12C17.5031 11.7333 17.4865 11.4708 17.4531 11.2125C17.4198 10.9542 17.3615 10.7083 17.2781 10.475L19.4281 8.85L18.4531 7.15L15.9781 8.2C15.6115 7.81667 15.2073 7.49583 14.7656 7.2375C14.324 6.97917 13.8448 6.78333 13.3281 6.65L13.0031 4H11.0281L10.6781 6.65C10.1615 6.78333 9.68229 6.97917 9.24062 7.2375C8.79896 7.49583 8.39479 7.80833 8.02813 8.175L5.55313 7.15L4.57812 8.85L6.72813 10.45C6.64479 10.7 6.58646 10.95 6.55312 11.2C6.51979 11.45 6.50313 11.7167 6.50313 12C6.50313 12.2667 6.51979 12.525 6.55312 12.775C6.58646 13.025 6.64479 13.275 6.72813 13.525L4.57812 15.15L5.55313 16.85L8.02813 15.8C8.39479 16.1833 8.79896 16.5042 9.24062 16.7625C9.68229 17.0208 10.1615 17.2167 10.6781 17.35L11.0031 20ZM12.0531 15.5C13.0198 15.5 13.8448 15.1583 14.5281 14.475C15.2115 13.7917 15.5531 12.9667 15.5531 12C15.5531 11.0333 15.2115 10.2083 14.5281 9.525C13.8448 8.84167 13.0198 8.5 12.0531 8.5C11.0698 8.5 10.2406 8.84167 9.56563 9.525C8.89062 10.2083 8.55312 11.0333 8.55312 12C8.55312 12.9667 8.89062 13.7917 9.56563 14.475C10.2406 15.1583 11.0698 15.5 12.0531 15.5Z" fill="#C4C4C4"/>
</g>
</svg>
