<svg width="24" height="24" viewBox="0 0 24 24" fill="none" xmlns="http://www.w3.org/2000/svg">
<mask id="mask0_2345_33591" style="mask-type:alpha" maskUnits="userSpaceOnUse" x="0" y="0" width="24" height="24">
<rect width="24" height="24" fill="#D9D9D9"/>
</mask>
<g mask="url(#mask0_2345_33591)">
<path d="M8.70094 2.5561L17.7919 11.3306C18.0688 11.6063 18.0851 12.0432 17.8408 12.3378L17.7919 12.3913L8.70134 21.4417C8.66386 21.4791 8.61313 21.5 8.56024 21.5H6.99688C6.88642 21.5 6.79688 21.4105 6.79688 21.3C6.79688 21.2468 6.81807 21.1958 6.85576 21.1583L16.1636 11.8908L6.8654 2.84334C6.78623 2.76631 6.7845 2.63969 6.86153 2.56052C6.89918 2.52183 6.95088 2.5 7.00487 2.5H8.56204C8.61386 2.5 8.66366 2.52011 8.70094 2.5561Z" fill="#0F0C09"/>
</g>
</svg>
