<svg width="24" height="24" viewBox="0 0 24 24" fill="none" xmlns="http://www.w3.org/2000/svg">
<mask id="mask0_2346_34481" style="mask-type:alpha" maskUnits="userSpaceOnUse" x="0" y="0" width="24" height="24">
<rect width="24" height="24" fill="#D9D9D9"/>
</mask>
<g mask="url(#mask0_2346_34481)">
<path d="M12 1.75C16.9706 1.75 21 5.78942 21 10.7723C21 12.9997 20.1949 15.0385 18.8604 16.6124L18.6125 16.8989C17.6104 18.0368 15.8654 19.8016 13.3775 22.1934C12.6322 22.91 11.4775 22.9346 10.704 22.2675L10.6226 22.1934L9.57337 21.179C7.43784 19.1017 5.96022 17.5799 5.1405 16.6134C3.80551 15.0395 3 13.0002 3 10.7723C3 5.78942 7.02944 1.75 12 1.75ZM12 3.25C7.85468 3.25 4.5 6.61977 4.5 10.7693C4.5 12.5765 5.13619 14.2817 6.27867 15.6314L6.43321 15.8114C6.99137 16.4533 7.82726 17.333 8.93662 18.4454L9.27763 18.786C9.85964 19.3654 10.5099 20.0028 11.2279 20.6976L11.6557 21.1106C11.8487 21.2965 12.1514 21.2965 12.3444 21.1106L13.1593 20.3222C15.3858 18.1583 16.9123 16.5875 17.7221 15.6305C18.8641 14.2809 19.5 12.5761 19.5 10.7693C19.5 6.61977 16.1453 3.25 12 3.25ZM12 7C14.2091 7 16 8.79086 16 11C16 13.2091 14.2091 15 12 15C9.79086 15 8 13.2091 8 11C8 8.79086 9.79086 7 12 7ZM12 8.5C10.6193 8.5 9.5 9.61929 9.5 11C9.5 12.3807 10.6193 13.5 12 13.5C13.3807 13.5 14.5 12.3807 14.5 11C14.5 9.61929 13.3807 8.5 12 8.5Z" fill="#C4C4C4"/>
</g>
</svg>
