<svg width="24" height="24" viewBox="0 0 24 24" fill="none" xmlns="http://www.w3.org/2000/svg">
<mask id="mask0_2346_34502" style="mask-type:alpha" maskUnits="userSpaceOnUse" x="0" y="0" width="24" height="24">
<rect width="24" height="24" fill="#D9D9D9"/>
</mask>
<g mask="url(#mask0_2346_34502)">
<path d="M15.8585 2.5561L6.76751 11.3306C6.49064 11.6063 6.47435 12.0432 6.71865 12.3378L6.76751 12.3913L15.8581 21.4417C15.8956 21.479 15.9463 21.5 15.9992 21.5H17.5625C17.673 21.5 17.7625 21.4105 17.7625 21.3C17.7625 21.2468 17.7414 21.1958 17.7037 21.1583L8.39578 11.8908L17.694 2.84334C17.7732 2.76631 17.7749 2.63969 17.6979 2.56052C17.6602 2.52183 17.6085 2.5 17.5545 2.5H15.9974C15.9456 2.5 15.8958 2.52011 15.8585 2.5561Z" fill="#C4C4C4"/>
</g>
</svg>
