<svg width="24" height="24" viewBox="0 0 24 24" fill="none" xmlns="http://www.w3.org/2000/svg">
<mask id="mask0_2010_14462" style="mask-type:alpha" maskUnits="userSpaceOnUse" x="0" y="0" width="24" height="24">
<rect width="24" height="24" fill="#D9D9D9"/>
</mask>
<g mask="url(#mask0_2010_14462)">
<path d="M12.25 2C15.0056 2 17.2395 4.23388 17.2395 6.9895V9.0105C17.2395 10.8572 16.2362 12.4696 14.745 13.3324L14.7448 13.5L20.2325 16.4329C21.4383 17.0774 22.1302 18.3911 21.9796 19.75C21.8375 21.0309 20.755 22 19.4663 22H5.03372C3.74501 22 2.66247 21.0309 2.52045 19.75C2.36978 18.3911 3.06169 17.0774 4.26751 16.4329L9.75524 13.5L9.75502 13.3324C8.26377 12.4696 7.26049 10.8572 7.26049 9.0105V6.9895C7.26049 4.23388 9.49437 2 12.25 2ZM12.25 3.5C10.3629 3.5 8.82574 4.99789 8.76251 6.86954L8.76049 6.9895V9.0105C8.76049 10.2264 9.38643 11.3318 10.3928 11.9655L10.5062 12.034L11.1542 12.4089C11.2159 12.4446 11.2539 12.5104 11.254 12.5817L11.2563 14.2784C11.2564 14.3523 11.2157 14.4202 11.1506 14.4551L4.97455 17.7559C4.30973 18.1112 3.92824 18.8355 4.01132 19.5847C4.0662 20.0797 4.46639 20.4603 4.95575 20.4971L5.03372 20.5H19.4663C19.9905 20.5 20.4309 20.1057 20.4887 19.5847C20.568 18.8695 20.224 18.1771 19.6143 17.8066L19.5255 17.7559L13.3494 14.4551C13.2843 14.4202 13.2436 14.3523 13.2437 14.2784L13.246 12.5817C13.2461 12.5104 13.2841 12.4446 13.3458 12.4089L13.9938 12.034C15.028 11.4357 15.6909 10.3523 15.7369 9.14512L15.7395 9.0105V6.9895C15.7395 5.0623 14.1772 3.5 12.25 3.5Z" fill="#E7E7E7"/>
</g>
</svg>
