<svg width="53" height="16" viewBox="0 0 53 16" fill="none" xmlns="http://www.w3.org/2000/svg">
<g clip-path="url(#clip0_2149_1288942)">
<path d="M24.8438 9.80686C24.8438 8.20895 26.0393 7.07947 27.6731 7.07947C29.3069 7.07947 30.5127 8.20801 30.5127 9.80686C30.5127 11.4057 29.3265 12.5436 27.6731 12.5436C26.0197 12.5436 24.8438 11.4048 24.8438 9.80686ZM29.2575 9.80686C29.2575 8.78771 28.5805 8.13882 27.6731 8.13882C26.7657 8.13882 26.099 8.78771 26.099 9.80686C26.099 10.826 26.776 11.4749 27.6731 11.4749C28.5702 11.4749 29.2575 10.8251 29.2575 9.80686Z" fill="white"/>
<path d="M34.8925 12.1509C34.8999 12.1705 34.8943 12.1929 34.8775 12.206C34.5791 12.4314 34.1445 12.5436 33.71 12.5436C32.5443 12.5436 31.8766 11.9246 31.8766 10.7456V8.17806H31.0466C31.0205 8.17806 31 8.15749 31 8.13131V7.22623C31 7.20005 31.0205 7.17948 31.0466 7.17948H31.8766V6.00793C31.8766 5.98175 31.8971 5.96118 31.9232 5.96118H33.0749C33.101 5.96118 33.1215 5.98175 33.1215 6.00793V7.17948H34.4998C34.526 7.17948 34.5465 7.20005 34.5465 7.22623V8.13131C34.5465 8.15749 34.526 8.17806 34.4998 8.17806H33.1215V10.7156C33.1215 11.2346 33.3808 11.5151 33.8592 11.5151C34.097 11.5151 34.3255 11.4562 34.5082 11.3309C34.5334 11.314 34.567 11.3225 34.5782 11.3514L34.8915 12.1509H34.8925Z" fill="white"/>
<path d="M35.3125 9.80686C35.3125 8.20895 36.508 7.07947 38.1418 7.07947C39.7757 7.07947 40.9815 8.20801 40.9815 9.80686C40.9815 11.4057 39.7953 12.5436 38.1418 12.5436C36.4884 12.5436 35.3125 11.4048 35.3125 9.80686ZM39.7262 9.80686C39.7262 8.78771 39.0492 8.13882 38.1418 8.13882C37.2345 8.13882 36.5677 8.78771 36.5677 9.80686C36.5677 10.826 37.2447 11.4749 38.1418 11.4749C39.039 11.4749 39.7262 10.8251 39.7262 9.80686Z" fill="white"/>
<path d="M47.3234 7.18607V12.4267C47.3234 12.4529 47.3029 12.4735 47.2767 12.4735H46.1847C46.1586 12.4735 46.1381 12.4529 46.1381 12.4267V11.7947C45.739 12.2837 45.1123 12.5436 44.4241 12.5436C43.0598 12.5436 42.1328 11.7947 42.1328 10.1865V7.18701C42.1328 7.16083 42.1533 7.14026 42.1794 7.14026H43.3311C43.3572 7.14026 43.3778 7.16083 43.3778 7.18701V10.0172C43.3778 10.9859 43.8356 11.4459 44.6227 11.4459C45.489 11.4459 46.0775 10.9064 46.0775 9.83773V7.18701C46.0775 7.16083 46.098 7.14026 46.1241 7.14026H47.2758C47.3019 7.14026 47.3224 7.16083 47.3224 7.18701L47.3234 7.18607Z" fill="white"/>
<path d="M52.0393 7.12715V8.21269C52.0393 8.24167 52.0132 8.26317 51.9843 8.2585C51.8985 8.24448 51.8248 8.23793 51.7502 8.23793C50.8036 8.23793 50.2059 8.79706 50.2059 9.88633V12.4267C50.2059 12.4529 50.1854 12.4735 50.1593 12.4735H49.0076C48.9815 12.4735 48.9609 12.4529 48.9609 12.4267V7.18606C48.9609 7.15988 48.9815 7.13931 49.0076 7.13931H50.1005C50.1266 7.13931 50.1471 7.15988 50.1471 7.18606V7.91816C50.4996 7.36932 51.13 7.08882 51.9917 7.07947C52.0178 7.07947 52.0393 7.10097 52.0393 7.12715Z" fill="white"/>
<path d="M23.6211 9.80874C23.6211 9.80874 23.6211 9.80781 23.6211 9.80687C23.6211 8.94293 23.2742 8.21644 22.6951 7.73118C23.1828 7.36933 23.5036 6.79431 23.5186 6.14542C23.5186 6.11924 23.4971 6.0968 23.471 6.0968H22.5133C22.4881 6.0968 22.4685 6.11644 22.4676 6.14168C22.4443 6.66061 22.0162 7.07481 21.4921 7.07481H20.8608V7.08042C20.8347 7.08042 20.8086 7.07855 20.7825 7.07855C19.1487 7.07855 17.9531 8.20709 17.9531 9.80594C17.9531 11.4048 19.1487 12.5427 20.7825 12.5427C21.37 12.5427 21.8978 12.3987 22.3342 12.1416C22.1906 12.9485 21.5714 13.444 20.7815 13.444C20.2071 13.444 19.7184 13.1738 19.4471 12.7119C19.4387 12.6979 19.4238 12.6885 19.4079 12.6885H18.1667C18.135 12.6885 18.1117 12.7213 18.1219 12.7512C18.4996 13.818 19.5095 14.5118 20.7815 14.5118C22.4004 14.5118 23.5689 13.4206 23.6193 11.876H23.6221V9.80594L23.6211 9.80874ZM20.7815 11.4749C19.8844 11.4749 19.2074 10.8251 19.2074 9.80687C19.2074 8.78866 19.8844 8.13884 20.7815 8.13884C21.6787 8.13884 22.3659 8.78772 22.3659 9.80687C22.3659 10.826 21.6889 11.4749 20.7815 11.4749Z" fill="white"/>
<path d="M8.33163 13.7179C8.31578 13.6899 8.27754 13.6861 8.25703 13.7104C7.68817 14.3752 6.85354 14.7642 5.96949 14.7642C3.69314 14.7642 2.50881 13.5356 1.97259 12.7165L2.2048 12.4108C2.31577 12.2649 2.31018 12.062 2.19268 11.9218L2.02295 11.7198C2.88276 10.5062 4.46809 8.73065 5.96949 8.73065C6.0329 8.73065 6.09445 8.73345 6.15786 8.73532C6.26977 8.7428 6.37981 8.75496 6.48705 8.77459C6.56259 8.78675 6.63626 8.80171 6.709 8.82134C6.8265 8.85033 6.9412 8.88773 7.05124 8.93167C7.12492 8.96066 7.20045 8.97094 7.27599 8.96346C7.35898 8.95879 7.44198 8.93167 7.51286 8.88492C7.64994 8.79423 7.7348 8.64463 7.74226 8.481C7.77677 7.58714 7.98659 6.58296 8.35494 5.57409C8.7289 4.5456 9.22688 3.61527 9.77428 2.91683C9.89644 2.75788 10.0233 2.60828 10.1529 2.47645C10.1967 2.4297 10.2406 2.38388 10.2844 2.34181C10.372 2.25579 10.4606 2.18005 10.5483 2.11367C10.9344 1.80979 11.2887 1.68263 11.5275 1.77052C12.1868 2.01082 12.502 4.01358 11.5181 6.72975C11.3811 7.10936 11.2253 7.47868 11.0537 7.8265C10.8719 8.2005 10.6714 8.55487 10.4578 8.87931C10.4355 8.91391 10.4644 8.95785 10.5045 8.95037C10.6061 8.9298 10.7106 8.91484 10.8159 8.90456C10.8915 8.89708 10.9698 8.8924 11.0481 8.8924C11.0752 8.8896 11.0994 8.8896 11.1265 8.8896C11.2813 8.8896 11.4314 8.89988 11.5797 8.92139C11.5993 8.92419 11.6179 8.91484 11.6273 8.89708C11.7224 8.71101 12.2502 7.67036 12.4675 7.07477C13.5688 4.03322 13.3124 1.34417 11.8716 0.817761C11.327 0.619542 10.6994 0.758857 10.0662 1.20953C9.63347 0.582142 9.09912 0.222168 8.51068 0.222168C6.97478 0.222168 5.81655 2.66158 5.81655 5.89667C5.81655 6.53808 5.86318 7.1505 5.94804 7.71617C3.16066 7.73581 0.78453 11.7451 0.684747 11.9162C0.611076 12.0433 0.597088 12.2004 0.64558 12.3397C0.657703 12.3762 0.960781 13.2289 1.7693 14.0714C2.5144 14.8502 3.84515 15.7787 5.96762 15.7787C7.08295 15.7787 8.14139 15.3121 8.89396 14.5099C8.91167 14.4912 8.91074 14.4612 8.89209 14.4435C8.78112 14.335 8.67947 14.221 8.58622 14.1013C8.49016 13.9797 8.4053 13.8516 8.32977 13.7189L8.33163 13.7179Z" fill="white"/>
<path d="M12.6956 10.1621C12.8858 10.0154 13.0499 9.83396 13.1796 9.63107C13.3884 9.30569 13.5143 8.92328 13.5237 8.51094C13.5237 8.48476 13.5022 8.46326 13.4761 8.46326H13.0182H12.5613C12.5361 8.46326 12.5165 8.48383 12.5156 8.50907C12.5081 8.70262 12.4531 8.88214 12.3608 9.03922V9.04202L12.3132 9.11308C12.3132 9.11308 12.3132 9.11402 12.3123 9.11495C12.2927 9.143 12.2713 9.17105 12.2498 9.19723C12.1342 9.33748 11.985 9.44874 11.8143 9.51887H11.8106C11.6763 9.5759 11.5327 9.60769 11.376 9.60769H11.1317C10.9312 9.60769 10.7382 9.632 10.5526 9.67595C10.5377 9.67875 10.5255 9.68062 10.5106 9.6853C10.2831 9.7442 10.0686 9.83209 9.87088 9.9499C9.52118 10.1528 9.22556 10.4398 9.01107 10.7821C9.01107 10.7821 9.01014 10.783 9.00828 10.7849C8.96631 10.8484 8.92994 10.9148 8.89637 10.9831C8.89357 10.9878 8.89171 10.9924 8.88891 10.998C8.80125 11.1748 8.73224 11.3608 8.68841 11.5562C8.64738 11.7376 8.625 11.9256 8.625 12.1191C8.625 12.3931 8.66883 12.6577 8.75183 12.9054C8.8199 13.1139 8.91316 13.3075 9.03066 13.4861C9.12858 13.6375 9.24328 13.7778 9.3701 13.9021C9.84011 14.3687 10.4892 14.6483 11.2044 14.6286C12.4801 14.5922 13.5414 13.573 13.629 12.2958C13.6878 11.4337 13.311 10.654 12.6974 10.1621H12.6956Z" fill="white"/>
<path d="M5.81454 11.0242C6.12202 11.0242 6.37127 10.7743 6.37127 10.466C6.37127 10.1577 6.12202 9.90784 5.81454 9.90784C5.50707 9.90784 5.25781 10.1577 5.25781 10.466C5.25781 10.7743 5.50707 11.0242 5.81454 11.0242Z" fill="#F24E2D"/>
</g>
<defs>
<clipPath id="clip0_2149_1288942">
<rect width="51.4206" height="15.5556" fill="white" transform="translate(0.617188 0.222168)"/>
</clipPath>
</defs>
</svg>
