<svg width="24" height="24" viewBox="0 0 24 24" fill="none" xmlns="http://www.w3.org/2000/svg">
<mask id="mask0_2347_33650" style="mask-type:alpha" maskUnits="userSpaceOnUse" x="0" y="0" width="24" height="24">
<rect width="24" height="24" fill="#D9D9D9"/>
</mask>
<g mask="url(#mask0_2347_33650)">
<path d="M7 22C8.03333 22 8.87917 21.7417 9.5375 21.225C10.1958 20.7083 10.7 19.95 11.05 18.95C11.3333 18.1167 11.6042 17.5333 11.8625 17.2C12.1208 16.8667 12.7167 16.3333 13.65 15.6C14.6833 14.7667 15.5 13.825 16.1 12.775C16.7 11.725 17 10.4667 17 9.00001C17 7.01668 16.3292 5.35418 14.9875 4.01251C13.6458 2.67085 11.9833 2.00001 10 2.00001C8.01667 2.00001 6.35417 2.67085 5.0125 4.01251C3.67083 5.35418 3 7.01668 3 9.00001H5C5 7.58335 5.47917 6.39585 6.4375 5.43751C7.39583 4.47918 8.58333 4.00001 10 4.00001C11.4167 4.00001 12.6042 4.47918 13.5625 5.43751C14.5208 6.39585 15 7.58335 15 9.00001C15 10.1333 14.775 11.1 14.325 11.9C13.875 12.7 13.2333 13.4167 12.4 14.05C11.5333 14.6833 10.8583 15.3 10.375 15.9C9.89167 16.5 9.53333 17.15 9.3 17.85C9.06667 18.5833 8.7875 19.125 8.4625 19.475C8.1375 19.825 7.65 20 7 20C6.45 20 5.97917 19.8042 5.5875 19.4125C5.19583 19.0208 5 18.55 5 18H3C3 19.1 3.39167 20.0417 4.175 20.825C4.95833 21.6083 5.9 22 7 22ZM17.8 16.75C18.7833 15.75 19.5625 14.5875 20.1375 13.2625C20.7125 11.9375 21 10.5167 21 9.00001C21 7.46668 20.7125 6.03335 20.1375 4.70001C19.5625 3.36668 18.7833 2.20001 17.8 1.20001L16.35 2.60001C17.1833 3.43335 17.8333 4.39585 18.3 5.48751C18.7667 6.57918 19 7.75001 19 9.00001C19 10.2333 18.7667 11.3917 18.3 12.475C17.8333 13.5583 17.1833 14.5167 16.35 15.35L17.8 16.75ZM10 11.5C10.7 11.5 11.2917 11.2542 11.775 10.7625C12.2583 10.2708 12.5 9.68335 12.5 9.00001C12.5 8.30001 12.2583 7.70835 11.775 7.22501C11.2917 6.74168 10.7 6.50001 10 6.50001C9.3 6.50001 8.70833 6.74168 8.225 7.22501C7.74167 7.70835 7.5 8.30001 7.5 9.00001C7.5 9.68335 7.74167 10.2708 8.225 10.7625C8.70833 11.2542 9.3 11.5 10 11.5Z" fill="#BA9972"/>
</g>
</svg>
