<svg width="24" height="24" viewBox="0 0 24 24" fill="none" xmlns="http://www.w3.org/2000/svg">
<mask id="mask0_2347_33643" style="mask-type:alpha" maskUnits="userSpaceOnUse" x="0" y="0" width="24" height="24">
<rect width="24" height="24" fill="#D9D9D9"/>
</mask>
<g mask="url(#mask0_2347_33643)">
<path d="M9.5 6V3.55L3.55 9.5H6V11H1V6H2.5V8.45L8.45 2.5H6V1H11V6H9.5ZM14.825 23C14.425 23 14.0417 22.925 13.675 22.775C13.3083 22.625 12.9833 22.4083 12.7 22.125L7.6 17L8.35 16.225C8.61667 15.9583 8.92917 15.7792 9.2875 15.6875C9.64583 15.5958 10 15.6 10.35 15.7L12 16.175V8C12 7.71667 12.0958 7.47917 12.2875 7.2875C12.4792 7.09583 12.7167 7 13 7C13.2833 7 13.5208 7.09583 13.7125 7.2875C13.9042 7.47917 14 7.71667 14 8V18.825L11.575 18.15L14.125 20.7C14.2083 20.7833 14.3125 20.8542 14.4375 20.9125C14.5625 20.9708 14.6917 21 14.825 21H19C19.55 21 20.0208 20.8042 20.4125 20.4125C20.8042 20.0208 21 19.55 21 19V15C21 14.7167 21.0958 14.4792 21.2875 14.2875C21.4792 14.0958 21.7167 14 22 14C22.2833 14 22.5208 14.0958 22.7125 14.2875C22.9042 14.4792 23 14.7167 23 15V19C23 20.1 22.6083 21.0417 21.825 21.825C21.0417 22.6083 20.1 23 19 23H14.825ZM15 16V12C15 11.7167 15.0958 11.4792 15.2875 11.2875C15.4792 11.0958 15.7167 11 16 11C16.2833 11 16.5208 11.0958 16.7125 11.2875C16.9042 11.4792 17 11.7167 17 12V16H15ZM18 16V13C18 12.7167 18.0958 12.4792 18.2875 12.2875C18.4792 12.0958 18.7167 12 19 12C19.2833 12 19.5208 12.0958 19.7125 12.2875C19.9042 12.4792 20 12.7167 20 13V16H18Z" fill="#BA9972"/>
</g>
</svg>
