<svg width="28" height="30" viewBox="0 0 28 30" fill="none" xmlns="http://www.w3.org/2000/svg">
<g filter="url(#filter0_d_2346_34474)">
<mask id="mask0_2346_34474" style="mask-type:alpha" maskUnits="userSpaceOnUse" x="2" y="0" width="24" height="24">
<rect x="2" width="24" height="24" fill="#D9D9D9"/>
</mask>
<g mask="url(#mask0_2346_34474)">
<path d="M10 18L14 14.95L18 18L16.5 13.05L20.5 10.2H15.6L14 5L12.4 10.2H7.5L11.5 13.05L10 18ZM14 22C12.6167 22 11.3167 21.7375 10.1 21.2125C8.88333 20.6875 7.825 19.975 6.925 19.075C6.025 18.175 5.3125 17.1167 4.7875 15.9C4.2625 14.6833 4 13.3833 4 12C4 10.6167 4.2625 9.31667 4.7875 8.1C5.3125 6.88333 6.025 5.825 6.925 4.925C7.825 4.025 8.88333 3.3125 10.1 2.7875C11.3167 2.2625 12.6167 2 14 2C15.3833 2 16.6833 2.2625 17.9 2.7875C19.1167 3.3125 20.175 4.025 21.075 4.925C21.975 5.825 22.6875 6.88333 23.2125 8.1C23.7375 9.31667 24 10.6167 24 12C24 13.3833 23.7375 14.6833 23.2125 15.9C22.6875 17.1167 21.975 18.175 21.075 19.075C20.175 19.975 19.1167 20.6875 17.9 21.2125C16.6833 21.7375 15.3833 22 14 22ZM14 20C16.2333 20 18.125 19.225 19.675 17.675C21.225 16.125 22 14.2333 22 12C22 9.76667 21.225 7.875 19.675 6.325C18.125 4.775 16.2333 4 14 4C11.7667 4 9.875 4.775 8.325 6.325C6.775 7.875 6 9.76667 6 12C6 14.2333 6.775 16.125 8.325 17.675C9.875 19.225 11.7667 20 14 20Z" fill="#C4C4C4"/>
</g>
</g>
<defs>
<filter id="filter0_d_2346_34474" x="-2" y="0" width="32" height="32" filterUnits="userSpaceOnUse" color-interpolation-filters="sRGB">
<feFlood flood-opacity="0" result="BackgroundImageFix"/>
<feColorMatrix in="SourceAlpha" type="matrix" values="0 0 0 0 0 0 0 0 0 0 0 0 0 0 0 0 0 0 127 0" result="hardAlpha"/>
<feOffset dy="4"/>
<feGaussianBlur stdDeviation="2"/>
<feComposite in2="hardAlpha" operator="out"/>
<feColorMatrix type="matrix" values="0 0 0 0 0 0 0 0 0 0 0 0 0 0 0 0 0 0 0.25 0"/>
<feBlend mode="normal" in2="BackgroundImageFix" result="effect1_dropShadow_2346_34474"/>
<feBlend mode="normal" in="SourceGraphic" in2="effect1_dropShadow_2346_34474" result="shape"/>
</filter>
</defs>
</svg>
