<svg width="24" height="24" viewBox="0 0 24 24" fill="none" xmlns="http://www.w3.org/2000/svg">
<mask id="mask0_2010_14318" style="mask-type:alpha" maskUnits="userSpaceOnUse" x="0" y="0" width="24" height="24">
<rect width="24" height="24" fill="#D9D9D9"/>
</mask>
<g mask="url(#mask0_2010_14318)">
<path fill-rule="evenodd" clip-rule="evenodd" d="M21 10.7723C21 5.78942 16.9706 1.75 12 1.75C7.02944 1.75 3 5.78942 3 10.7723C3 13.0002 3.80551 15.0395 5.1405 16.6134C5.96022 17.5799 7.43784 19.1017 9.57337 21.179L10.6226 22.1934L10.704 22.2675C11.4775 22.9346 12.6322 22.91 13.3775 22.1934C15.8654 19.8016 17.6104 18.0368 18.6125 16.8989L18.8604 16.6124C20.1949 15.0385 21 12.9997 21 10.7723ZM16 11C16 8.79086 14.2091 7 12 7C9.79086 7 8 8.79086 8 11C8 13.2091 9.79086 15 12 15C14.2091 15 16 13.2091 16 11Z" fill="#E7E7E7"/>
</g>
</svg>
