<svg width="24" height="24" viewBox="0 0 24 24" fill="none" xmlns="http://www.w3.org/2000/svg">
<mask id="mask0_2346_34532" style="mask-type:alpha" maskUnits="userSpaceOnUse" x="0" y="0" width="24" height="24">
<rect width="24" height="24" fill="#D9D9D9"/>
</mask>
<g mask="url(#mask0_2346_34532)">
<path d="M8 3.00006C8.55 3.00006 9.02083 3.19589 9.4125 3.58756C9.80417 3.97923 10 4.45006 10 5.00006V9.00006C10 9.55006 9.80417 10.0209 9.4125 10.4126C9.02083 10.8042 8.55 11.0001 8 11.0001H4C3.45 11.0001 2.97917 10.8042 2.5875 10.4126C2.19583 10.0209 2 9.55006 2 9.00006L2 5.00006C2 4.45006 2.19583 3.97923 2.5875 3.58756C2.97917 3.19589 3.45 3.00006 4 3.00006L8 3.00006ZM22 6.00006V8.00006L13 8.00006V6.00006L22 6.00006ZM8 13.0001C8.55 13.0001 9.02083 13.1959 9.4125 13.5876C9.80417 13.9792 10 14.4501 10 15.0001V19.0001C10 19.5501 9.80417 20.0209 9.4125 20.4126C9.02083 20.8042 8.55 21.0001 8 21.0001H4C3.45 21.0001 2.97917 20.8042 2.5875 20.4126C2.19583 20.0209 2 19.5501 2 19.0001L2 15.0001C2 14.4501 2.19583 13.9792 2.5875 13.5876C2.97917 13.1959 3.45 13.0001 4 13.0001H8ZM22 16.0001V18.0001L13 18.0001V16.0001L22 16.0001Z" fill="#C4C4C4"/>
</g>
</svg>
