<svg width="24" height="24" viewBox="0 0 24 24" fill="none" xmlns="http://www.w3.org/2000/svg">
<mask id="mask0_2347_33618" style="mask-type:alpha" maskUnits="userSpaceOnUse" x="0" y="0" width="24" height="24">
<rect width="24" height="24" fill="#D9D9D9"/>
</mask>
<g mask="url(#mask0_2347_33618)">
<path d="M9.25313 22L8.85313 18.8C8.63646 18.7167 8.43229 18.6167 8.24062 18.5C8.04896 18.3833 7.86146 18.2583 7.67812 18.125L4.70312 19.375L1.95312 14.625L4.52813 12.675C4.51146 12.5583 4.50312 12.4458 4.50312 12.3375V11.6625C4.50312 11.5542 4.51146 11.4417 4.52813 11.325L1.95312 9.375L4.70312 4.625L7.67812 5.875C7.86146 5.74167 8.05313 5.61667 8.25313 5.5C8.45312 5.38333 8.65313 5.28333 8.85313 5.2L9.25313 2H14.7531L15.1531 5.2C15.3698 5.28333 15.574 5.38333 15.7656 5.5C15.9573 5.61667 16.1448 5.74167 16.3281 5.875L19.3031 4.625L22.0531 9.375L19.4781 11.325C19.4948 11.4417 19.5031 11.5542 19.5031 11.6625V12.3375C19.5031 12.4458 19.4865 12.5583 19.4531 12.675L22.0281 14.625L19.2781 19.375L16.3281 18.125C16.1448 18.2583 15.9531 18.3833 15.7531 18.5C15.5531 18.6167 15.3531 18.7167 15.1531 18.8L14.7531 22H9.25313ZM12.0531 15.5C13.0198 15.5 13.8448 15.1583 14.5281 14.475C15.2115 13.7917 15.5531 12.9667 15.5531 12C15.5531 11.0333 15.2115 10.2083 14.5281 9.525C13.8448 8.84167 13.0198 8.5 12.0531 8.5C11.0698 8.5 10.2406 8.84167 9.56563 9.525C8.89062 10.2083 8.55312 11.0333 8.55312 12C8.55312 12.9667 8.89062 13.7917 9.56563 14.475C10.2406 15.1583 11.0698 15.5 12.0531 15.5Z" fill="#BA9972"/>
</g>
</svg>
