<svg width="41" height="41" viewBox="0 0 41 41" fill="none" xmlns="http://www.w3.org/2000/svg">
<path d="M5.39844 22.0667C5.39844 25.0334 6.27817 27.9335 7.92639 30.4002C9.57462 32.8669 11.9173 34.7895 14.6582 35.9248C17.3991 37.0602 20.4151 37.3572 23.3248 36.7784C26.2345 36.1997 28.9073 34.771 31.005 32.6733C33.1028 30.5755 34.5314 27.9027 35.1102 24.993C35.689 22.0833 35.3919 19.0673 34.2566 16.3264C33.1213 13.5855 31.1987 11.2428 28.732 9.59461C26.2653 7.94639 23.3652 7.06665 20.3984 7.06665" stroke="#E7E7E7" stroke-width="2" stroke-linecap="round" stroke-linejoin="round"/>
<path d="M20.3984 7.06673H7.89844M7.89844 7.06673L11.2318 3.7334M7.89844 7.06673L11.2318 10.4001" stroke="#E7E7E7" stroke-width="2" stroke-linecap="round" stroke-linejoin="round"/>
<path d="M17.8662 16.8196V26.8H16.0547V18.9319L13.6553 19.7249V18.262L17.6611 16.8196H17.8662ZM21.8868 22.22L20.4445 21.8713L20.9982 16.8469H26.4738V18.344H22.4952L22.2355 20.6682C22.3767 20.5816 22.5818 20.495 22.8507 20.4084C23.1241 20.3173 23.4318 20.2717 23.7736 20.2717C24.2475 20.2717 24.6713 20.3492 25.045 20.5042C25.4187 20.6545 25.7355 20.8733 25.9952 21.1604C26.2596 21.4475 26.4578 21.7984 26.59 22.2131C26.7267 22.6233 26.795 23.0881 26.795 23.6077C26.795 24.0634 26.7267 24.4918 26.59 24.8928C26.4578 25.2893 26.255 25.6425 25.9816 25.9524C25.7081 26.2577 25.364 26.4993 24.9493 26.677C24.5346 26.8502 24.047 26.9368 23.4864 26.9368C23.0626 26.9368 22.6547 26.8752 22.2628 26.7522C21.8754 26.6246 21.5268 26.44 21.2169 26.1985C20.907 25.9524 20.6586 25.6516 20.4718 25.2961C20.2895 24.9407 20.1892 24.5328 20.171 24.0725H21.9552C21.9871 24.3778 22.0691 24.6376 22.2013 24.8518C22.3335 25.066 22.5066 25.2301 22.7208 25.344C22.9396 25.4579 23.1925 25.5149 23.4796 25.5149C23.7394 25.5149 23.9627 25.467 24.1495 25.3713C24.3409 25.2711 24.4982 25.1321 24.6212 24.9543C24.7443 24.7766 24.8354 24.567 24.8946 24.3254C24.9539 24.0839 24.9835 23.8196 24.9835 23.5325C24.9835 23.2545 24.9493 23.0015 24.881 22.7737C24.8126 22.5413 24.7078 22.3407 24.5665 22.1721C24.4252 22.0035 24.2475 21.8736 24.0333 21.7825C23.8237 21.6913 23.5776 21.6458 23.295 21.6458C22.9168 21.6458 22.6251 21.7027 22.42 21.8167C22.2195 21.9306 22.0418 22.065 21.8868 22.22Z" fill="#E7E7E7"/>
</svg>
