<svg width="24" height="24" viewBox="0 0 24 24" fill="none" xmlns="http://www.w3.org/2000/svg">
<mask id="mask0_2346_34527" style="mask-type:alpha" maskUnits="userSpaceOnUse" x="0" y="0" width="24" height="24">
<rect width="24" height="24" fill="#D9D9D9"/>
</mask>
<g mask="url(#mask0_2346_34527)">
<path d="M3 22C2.45 22 1.97917 21.8042 1.5875 21.4125C1.19583 21.0208 1 20.55 1 20V6C1 5.45 1.19583 4.97917 1.5875 4.5875C1.97917 4.19583 2.45 4 3 4H11V6H3V20H17V14H19V20C19 20.55 18.8042 21.0208 18.4125 21.4125C18.0208 21.8042 17.55 22 17 22H3ZM5 18H7V11H5V18ZM9 18H11V8H9V18ZM13 18H15V14H13V18ZM18 12C17.5 12 17.0083 11.925 16.525 11.775C16.0417 11.625 15.5917 11.4083 15.175 11.125L14.8 11.475C14.6 11.6583 14.3625 11.75 14.0875 11.75C13.8125 11.75 13.5833 11.6583 13.4 11.475C13.2167 11.2917 13.125 11.0583 13.125 10.775C13.125 10.4917 13.2167 10.2583 13.4 10.075L13.8 9.675C13.5333 9.275 13.3333 8.85 13.2 8.4C13.0667 7.95 13 7.48333 13 7C13 5.61667 13.4875 4.4375 14.4625 3.4625C15.4375 2.4875 16.6167 2 18 2H23V7C23 8.38333 22.5125 9.5625 21.5375 10.5375C20.5625 11.5125 19.3833 12 18 12ZM18 10C18.8333 10 19.5417 9.70833 20.125 9.125C20.7083 8.54167 21 7.83333 21 7V4H18C17.1667 4 16.4583 4.29167 15.875 4.875C15.2917 5.45833 15 6.16667 15 7C15 7.21667 15.0208 7.425 15.0625 7.625C15.1042 7.825 15.1667 8.025 15.25 8.225L17.85 5.625C18.0333 5.44167 18.2667 5.35 18.55 5.35C18.8333 5.35 19.0667 5.44167 19.25 5.625C19.45 5.825 19.55 6.0625 19.55 6.3375C19.55 6.6125 19.45 6.85 19.25 7.05L16.65 9.65C16.8667 9.75 17.0875 9.83333 17.3125 9.9C17.5375 9.96667 17.7667 10 18 10Z" fill="#C4C4C4"/>
</g>
</svg>
