<svg width="24" height="24" viewBox="0 0 24 24" fill="none" xmlns="http://www.w3.org/2000/svg">
<mask id="mask0_2346_34525" style="mask-type:alpha" maskUnits="userSpaceOnUse" x="0" y="0" width="24" height="24">
<rect width="24" height="24" fill="#D9D9D9"/>
</mask>
<g mask="url(#mask0_2346_34525)">
<path d="M7 22C5.61667 22 4.4375 21.5125 3.4625 20.5375C2.4875 19.5625 2 18.3833 2 17C2 15.6167 2.4875 14.4375 3.4625 13.4625C4.4375 12.4875 5.61667 12 7 12C8.38333 12 9.5625 12.4875 10.5375 13.4625C11.5125 14.4375 12 15.6167 12 17C12 18.3833 11.5125 19.5625 10.5375 20.5375C9.5625 21.5125 8.38333 22 7 22ZM20.6 21L14.2 14.6C14 14.3833 13.7875 14.1625 13.5625 13.9375C13.3375 13.7125 13.1167 13.5 12.9 13.3C13.5333 12.9 14.0417 12.3667 14.425 11.7C14.8083 11.0333 15 10.3 15 9.5C15 8.25 14.5625 7.1875 13.6875 6.3125C12.8125 5.4375 11.75 5 10.5 5C9.25 5 8.1875 5.4375 7.3125 6.3125C6.4375 7.1875 6 8.25 6 9.5C6 9.6 6.00417 9.69583 6.0125 9.7875C6.02083 9.87917 6.03333 9.975 6.05 10.075C5.75 10.1083 5.42083 10.175 5.0625 10.275C4.70417 10.375 4.38333 10.4917 4.1 10.625C4.06667 10.4417 4.04167 10.2583 4.025 10.075C4.00833 9.89167 4 9.7 4 9.5C4 7.68333 4.62917 6.14583 5.8875 4.8875C7.14583 3.62917 8.68333 3 10.5 3C12.3167 3 13.8542 3.62917 15.1125 4.8875C16.3708 6.14583 17 7.68333 17 9.5C17 10.2167 16.8875 10.8958 16.6625 11.5375C16.4375 12.1792 16.125 12.7667 15.725 13.3L22 19.6L20.6 21ZM5.225 19.475L7 17.7L8.75 19.475L9.475 18.775L7.7 17L9.475 15.225L8.775 14.525L7 16.3L5.225 14.525L4.525 15.225L6.3 17L4.525 18.775L5.225 19.475Z" fill="#C4C4C4"/>
</g>
</svg>
