<svg width="24" height="24" viewBox="0 0 24 24" fill="none" xmlns="http://www.w3.org/2000/svg">
<mask id="mask0_2346_34533" style="mask-type:alpha" maskUnits="userSpaceOnUse" x="0" y="0" width="24" height="24">
<rect width="24" height="24" fill="#D9D9D9"/>
</mask>
<g mask="url(#mask0_2346_34533)">
<path d="M15.127 5.77498L13.927 2.34998C13.8437 2.08331 13.8603 1.82498 13.977 1.57498C14.0937 1.32498 14.2853 1.15831 14.552 1.07498C14.8187 0.991644 15.077 1.00414 15.327 1.11248C15.577 1.22081 15.7437 1.40831 15.827 1.67498L18.052 7.94998L20.002 6.22498C20.202 6.04164 20.4312 5.91664 20.6895 5.84998C20.9478 5.78331 21.2187 5.76664 21.502 5.79998C21.7853 5.83331 22.0353 5.92914 22.252 6.08748C22.4687 6.24581 22.6437 6.44164 22.777 6.67498L23.002 7.07498L20.777 13.975C20.677 14.3083 20.5103 14.6 20.277 14.85C20.0437 15.1 19.7853 15.3166 19.502 15.5V12.3C19.502 12.1833 19.4978 12.0708 19.4895 11.9625C19.4812 11.8541 19.4687 11.7416 19.452 11.625L20.452 8.49998L18.827 9.92498C18.7437 9.80831 18.6603 9.69581 18.577 9.58748C18.4937 9.47914 18.4103 9.37498 18.327 9.27498L15.127 5.77498ZM9.852 4.29998L9.102 3.02498C8.96867 2.79164 8.9395 2.53748 9.0145 2.26248C9.0895 1.98748 9.24367 1.78331 9.477 1.64998C9.71033 1.51664 9.9645 1.48748 10.2395 1.56248C10.5145 1.63748 10.7187 1.79164 10.852 2.02498L11.727 3.52498C11.377 3.55831 11.052 3.62498 10.752 3.72498C10.452 3.82498 10.152 4.01664 9.852 4.29998ZM8.827 7.87498L7.327 7.59998L6.177 5.94998C6.027 5.71664 5.97283 5.47081 6.0145 5.21248C6.05617 4.95414 6.19367 4.74164 6.427 4.57498C6.66033 4.40831 6.9145 4.34998 7.1895 4.39998C7.4645 4.44998 7.68533 4.59164 7.852 4.82498L8.752 6.17498C8.71867 6.39164 8.702 6.60831 8.702 6.82498C8.702 7.04164 8.71867 7.25831 8.752 7.47498L8.827 7.87498ZM15.502 21.3L5.152 23C4.86867 23.05 4.61867 22.9958 4.402 22.8375C4.18533 22.6791 4.052 22.4583 4.002 22.175C3.952 21.8916 4.00617 21.6458 4.1645 21.4375C4.32283 21.2291 4.54367 21.1 4.827 21.05L15.152 19.325C15.3853 19.2916 15.5853 19.1791 15.752 18.9875C15.9187 18.7958 16.002 18.575 16.002 18.325V11.925L12.402 7.94998L13.252 12.275L3.802 10.5C3.51867 10.45 3.302 10.3125 3.152 10.0875C3.002 9.86248 2.952 9.60831 3.002 9.32498C3.052 9.04164 3.1895 8.82498 3.4145 8.67498C3.6395 8.52498 3.89367 8.47498 4.177 8.52498L10.727 9.74998L10.202 7.17498C10.152 6.89164 10.1603 6.62498 10.227 6.37498C10.2937 6.12498 10.4187 5.89164 10.602 5.67498C10.7853 5.45831 10.9937 5.28748 11.227 5.16248C11.4603 5.03748 11.7187 4.98331 12.002 4.99998L12.452 5.02498L17.227 10.3C17.477 10.5833 17.6687 10.8916 17.802 11.225C17.9353 11.5583 18.002 11.9166 18.002 12.3V18.35C18.002 19.1 17.7687 19.7458 17.302 20.2875C16.8353 20.8291 16.2353 21.1666 15.502 21.3ZM9.002 18.5L3.077 19C2.79367 19.0333 2.552 18.9583 2.352 18.775C2.152 18.5916 2.03533 18.3583 2.002 18.075C1.96867 17.7916 2.04367 17.55 2.227 17.35C2.41033 17.15 2.64367 17.0333 2.927 17L9.002 16.5V18.5ZM9.002 14.975L1.977 14.75C1.69367 14.7333 1.45617 14.625 1.2645 14.425C1.07283 14.225 0.985333 13.9833 1.002 13.7C1.01867 13.4166 1.12283 13.1833 1.3145 13C1.50617 12.8166 1.74367 12.7333 2.027 12.75L9.002 12.975V14.975Z" fill="#C4C4C4"/>
</g>
</svg>
