<svg width="33" height="33" viewBox="0 0 33 33" fill="none" xmlns="http://www.w3.org/2000/svg">
<g filter="url(#filter0_dd_2142_692548)">
<path d="M7.5 12.5C7.5 7.52944 11.5294 3.5 16.5 3.5C21.4706 3.5 25.5 7.52944 25.5 12.5C25.5 17.4706 21.4706 21.5 16.5 21.5C11.5294 21.5 7.5 17.4706 7.5 12.5Z" fill="#FFECB3" shape-rendering="crispEdges"/>
<path d="M16.5 2.75C21.8848 2.75 26.25 7.11522 26.25 12.5C26.25 17.8848 21.8848 22.25 16.5 22.25C11.1152 22.25 6.75 17.8848 6.75 12.5C6.75 7.11522 11.1152 2.75 16.5 2.75Z" stroke="white" stroke-width="1.5" shape-rendering="crispEdges"/>
<mask id="mask0_2142_692548" style="mask-type:alpha" maskUnits="userSpaceOnUse" x="9" y="5" width="15" height="15">
<rect x="9.5" y="5.5" width="14" height="14" fill="#D9D9D9"/>
</mask>
<g mask="url(#mask0_2142_692548)">
<path d="M14.75 17.75H12.4167C12.0958 17.75 11.8212 17.6358 11.5927 17.4073C11.3642 17.1788 11.25 16.9042 11.25 16.5833V12.5C11.25 11.7708 11.3885 11.0878 11.6656 10.451C11.9427 9.81424 12.317 9.26007 12.7885 8.78854C13.2601 8.31701 13.8142 7.94271 14.451 7.66563C15.0878 7.38854 15.7708 7.25 16.5 7.25C17.2292 7.25 17.9122 7.38854 18.549 7.66563C19.1858 7.94271 19.7399 8.31701 20.2115 8.78854C20.683 9.26007 21.0573 9.81424 21.3344 10.451C21.6115 11.0878 21.75 11.7708 21.75 12.5V16.5833C21.75 16.9042 21.6358 17.1788 21.4073 17.4073C21.1788 17.6358 20.9042 17.75 20.5833 17.75H18.25V13.0833H20.5833V12.5C20.5833 11.3625 20.1872 10.3976 19.3948 9.60521C18.6024 8.81285 17.6375 8.41667 16.5 8.41667C15.3625 8.41667 14.3976 8.81285 13.6052 9.60521C12.8128 10.3976 12.4167 11.3625 12.4167 12.5V13.0833H14.75V17.75Z" fill="#3B2F00"/>
</g>
</g>
<defs>
<filter id="filter0_dd_2142_692548" x="0" y="0" width="33" height="33" filterUnits="userSpaceOnUse" color-interpolation-filters="sRGB">
<feFlood flood-opacity="0" result="BackgroundImageFix"/>
<feColorMatrix in="SourceAlpha" type="matrix" values="0 0 0 0 0 0 0 0 0 0 0 0 0 0 0 0 0 0 127 0" result="hardAlpha"/>
<feMorphology radius="2" operator="erode" in="SourceAlpha" result="effect1_dropShadow_2142_692548"/>
<feOffset dy="2"/>
<feGaussianBlur stdDeviation="2"/>
<feComposite in2="hardAlpha" operator="out"/>
<feColorMatrix type="matrix" values="0 0 0 0 0 0 0 0 0 0 0 0 0 0 0 0 0 0 0.06 0"/>
<feBlend mode="normal" in2="BackgroundImageFix" result="effect1_dropShadow_2142_692548"/>
<feColorMatrix in="SourceAlpha" type="matrix" values="0 0 0 0 0 0 0 0 0 0 0 0 0 0 0 0 0 0 127 0" result="hardAlpha"/>
<feMorphology radius="2" operator="erode" in="SourceAlpha" result="effect2_dropShadow_2142_692548"/>
<feOffset dy="4"/>
<feGaussianBlur stdDeviation="4"/>
<feComposite in2="hardAlpha" operator="out"/>
<feColorMatrix type="matrix" values="0 0 0 0 0 0 0 0 0 0 0 0 0 0 0 0 0 0 0.1 0"/>
<feBlend mode="normal" in2="effect1_dropShadow_2142_692548" result="effect2_dropShadow_2142_692548"/>
<feBlend mode="normal" in="SourceGraphic" in2="effect2_dropShadow_2142_692548" result="shape"/>
</filter>
</defs>
</svg>
