<svg width="33" height="33" viewBox="0 0 33 33" fill="none" xmlns="http://www.w3.org/2000/svg">
<g filter="url(#filter0_dd_2142_692546)">
<path d="M7.5 12.5C7.5 7.52944 11.5294 3.5 16.5 3.5C21.4706 3.5 25.5 7.52944 25.5 12.5C25.5 17.4706 21.4706 21.5 16.5 21.5C11.5294 21.5 7.5 17.4706 7.5 12.5Z" fill="#FFECB3" shape-rendering="crispEdges"/>
<path d="M16.5 2.75C21.8848 2.75 26.25 7.11522 26.25 12.5C26.25 17.8848 21.8848 22.25 16.5 22.25C11.1152 22.25 6.75 17.8848 6.75 12.5C6.75 7.11522 11.1152 2.75 16.5 2.75Z" stroke="white" stroke-width="1.5" shape-rendering="crispEdges"/>
<mask id="mask0_2142_692546" style="mask-type:alpha" maskUnits="userSpaceOnUse" x="9" y="5" width="15" height="15">
<rect x="9.5" y="5.5" width="14" height="14" fill="#D9D9D9"/>
</mask>
<g mask="url(#mask0_2142_692546)">
<path d="M13.5833 15.4167H17.6667V14.25H13.5833V15.4167ZM13.5833 13.0833H19.4167V11.9167H13.5833V13.0833ZM13.5833 10.75H19.4167V9.58333H13.5833V10.75ZM12.4167 17.75C12.0958 17.75 11.8212 17.6358 11.5927 17.4073C11.3642 17.1788 11.25 16.9042 11.25 16.5833V8.41667C11.25 8.09583 11.3642 7.82118 11.5927 7.59271C11.8212 7.36424 12.0958 7.25 12.4167 7.25H20.5833C20.9042 7.25 21.1788 7.36424 21.4073 7.59271C21.6358 7.82118 21.75 8.09583 21.75 8.41667V16.5833C21.75 16.9042 21.6358 17.1788 21.4073 17.4073C21.1788 17.6358 20.9042 17.75 20.5833 17.75H12.4167ZM12.4167 16.5833H20.5833V8.41667H12.4167V16.5833Z" fill="#3B2F00"/>
</g>
</g>
<defs>
<filter id="filter0_dd_2142_692546" x="0" y="0" width="33" height="33" filterUnits="userSpaceOnUse" color-interpolation-filters="sRGB">
<feFlood flood-opacity="0" result="BackgroundImageFix"/>
<feColorMatrix in="SourceAlpha" type="matrix" values="0 0 0 0 0 0 0 0 0 0 0 0 0 0 0 0 0 0 127 0" result="hardAlpha"/>
<feMorphology radius="2" operator="erode" in="SourceAlpha" result="effect1_dropShadow_2142_692546"/>
<feOffset dy="2"/>
<feGaussianBlur stdDeviation="2"/>
<feComposite in2="hardAlpha" operator="out"/>
<feColorMatrix type="matrix" values="0 0 0 0 0 0 0 0 0 0 0 0 0 0 0 0 0 0 0.06 0"/>
<feBlend mode="normal" in2="BackgroundImageFix" result="effect1_dropShadow_2142_692546"/>
<feColorMatrix in="SourceAlpha" type="matrix" values="0 0 0 0 0 0 0 0 0 0 0 0 0 0 0 0 0 0 127 0" result="hardAlpha"/>
<feMorphology radius="2" operator="erode" in="SourceAlpha" result="effect2_dropShadow_2142_692546"/>
<feOffset dy="4"/>
<feGaussianBlur stdDeviation="4"/>
<feComposite in2="hardAlpha" operator="out"/>
<feColorMatrix type="matrix" values="0 0 0 0 0 0 0 0 0 0 0 0 0 0 0 0 0 0 0.1 0"/>
<feBlend mode="normal" in2="effect1_dropShadow_2142_692546" result="effect2_dropShadow_2142_692546"/>
<feBlend mode="normal" in="SourceGraphic" in2="effect2_dropShadow_2142_692546" result="shape"/>
</filter>
</defs>
</svg>
