<svg width="24" height="24" viewBox="0 0 24 24" fill="none" xmlns="http://www.w3.org/2000/svg">
<mask id="mask0_2346_34477" style="mask-type:alpha" maskUnits="userSpaceOnUse" x="0" y="0" width="24" height="24">
<rect width="24" height="24" fill="#D9D9D9"/>
</mask>
<g mask="url(#mask0_2346_34477)">
<path d="M3.30152 4.36541C5.5984 1.98707 9.25991 1.88296 11.6763 4.0531L11.8329 4.19925L11.858 4.22404C11.937 4.30229 12.0615 4.30254 12.1408 4.2246L12.204 4.16347C14.6177 1.88013 18.3633 1.94744 20.6985 4.36541C23.1005 6.85261 23.1005 10.8852 20.6985 13.3724L13.4497 20.8782C12.6491 21.7073 11.3509 21.7073 10.5503 20.8782L3.30152 13.3724C0.899495 10.8852 0.899495 6.85261 3.30152 4.36541ZM4.38883 5.49128C2.61948 7.32337 2.58788 10.2735 4.29404 12.1455L4.38883 12.2465L11.6376 19.7523C11.8234 19.9448 12.1165 19.9585 12.3177 19.7936L12.3624 19.7523L19.6112 12.2465C21.4127 10.3811 21.4127 7.35668 19.6112 5.49128C17.8418 3.65918 14.9928 3.62647 13.1849 5.39313L13.0873 5.49128L12.1567 6.45494C12.0773 6.53712 11.9489 6.53795 11.8685 6.45679L10.8282 5.40598C9.01841 3.62319 6.15937 3.65795 4.38883 5.49128Z" fill="#C4C4C4"/>
</g>
</svg>
