<svg width="24" height="24" viewBox="0 0 24 24" fill="none" xmlns="http://www.w3.org/2000/svg">
<mask id="mask0_2346_34476" style="mask-type:alpha" maskUnits="userSpaceOnUse" x="0" y="0" width="24" height="24">
<rect width="24" height="24" fill="#D9D9D9"/>
</mask>
<g mask="url(#mask0_2346_34476)">
<path d="M12 1C18.0751 1 23 5.92487 23 12C23 18.0751 18.0751 23 12 23C5.92487 23 1 18.0751 1 12C1 5.92487 5.92487 1 12 1ZM12 2.5C6.75329 2.5 2.5 6.75329 2.5 12C2.5 17.2467 6.75329 21.5 12 21.5C17.2467 21.5 21.5 17.2467 21.5 12C21.5 6.75329 17.2467 2.5 12 2.5ZM13 16.2V17.3C13 17.4105 12.9105 17.5 12.8 17.5H11.7C11.5895 17.5 11.5 17.4105 11.5 17.3V16.2C11.5 16.0895 11.5895 16 11.7 16H12.8C12.9105 16 13 16.0895 13 16.2ZM12 6C13.933 6 15.5 7.567 15.5 9.5C15.5 11.0853 14.446 12.4245 13.0005 12.8549L13.0001 14.3C13 14.4104 12.9104 14.4999 12.8 14.5H11.7C11.5895 14.5 11.5 14.4105 11.5 14.3V11.7C11.5 11.5895 11.5895 11.5 11.7 11.5H12C13.1046 11.5 14 10.6046 14 9.5C14 8.39543 13.1046 7.5 12 7.5C10.8954 7.5 10 8.39543 10 9.5H8.5C8.5 7.567 10.067 6 12 6Z" fill="#C4C4C4"/>
</g>
</svg>
