<svg width="24" height="24" viewBox="0 0 24 24" fill="none" xmlns="http://www.w3.org/2000/svg">
<mask id="mask0_2345_33568" style="mask-type:alpha" maskUnits="userSpaceOnUse" x="0" y="0" width="24" height="24">
<rect width="24" height="24" fill="#D9D9D9"/>
</mask>
<g mask="url(#mask0_2345_33568)">
<path d="M12.2038 2H11.7961L11.6277 2.00309V2.00309C9.32914 2.09341 7.51221 3.9885 7.51232 6.29549V8.70631L7.5177 8.91846V8.91845C7.57132 10.0489 8.05079 11.1168 8.85923 11.9063L9.93385 12.9563L10.0031 13.0326C10.1338 13.1923 10.2054 13.3929 10.2054 13.6012V13.7478L10.1985 13.8535V13.8535C10.1635 14.1362 9.99124 14.3832 9.73847 14.5131L2.97769 17.98L2.86077 18.0456V18.0456C2.32649 18.3721 2.00034 18.9541 2 19.5816V19.8824L2.00462 19.9982C2.06308 20.7187 2.66461 21.2857 3.39846 21.2857H20.6015V21.2857C21.3736 21.2857 21.9996 20.6583 22 19.884V19.5831C22 18.9065 21.6231 18.2871 21.0223 17.98L14.2615 14.5131V14.5131C13.9747 14.366 13.7943 14.0701 13.7946 13.747V13.6004C13.7946 13.3582 13.8931 13.126 14.0661 12.9563L15.1408 11.9063V11.9063C16.0015 11.0654 16.487 9.91142 16.4869 8.7063V6.29549V6.29549C16.4869 3.92316 14.5693 2 12.2038 2V2Z" fill="#0F0C09"/>
</g>
</svg>
