<svg width="24" height="24" viewBox="0 0 24 24" fill="none" xmlns="http://www.w3.org/2000/svg">
<mask id="mask0_2199_67277" style="mask-type:alpha" maskUnits="userSpaceOnUse" x="0" y="0" width="24" height="24">
<rect width="24" height="24" fill="#D9D9D9"/>
</mask>
<g mask="url(#mask0_2199_67277)">
<path d="M15.8546 2.5561L6.7636 11.3306C6.48673 11.6063 6.47044 12.0432 6.71474 12.3378L6.7636 12.3913L15.8542 21.4417C15.8916 21.479 15.9424 21.5 15.9953 21.5H17.5586C17.6691 21.5 17.7586 21.4105 17.7586 21.3C17.7586 21.2468 17.7374 21.1958 17.6997 21.1583L8.39187 11.8908L17.6901 2.84334C17.7693 2.76631 17.771 2.63969 17.694 2.56052C17.6563 2.52183 17.6046 2.5 17.5506 2.5H15.9935C15.9416 2.5 15.8919 2.52011 15.8546 2.5561Z" fill="#E7E7E7"/>
</g>
</svg>
