<svg width="24" height="24" viewBox="0 0 24 24" fill="none" xmlns="http://www.w3.org/2000/svg">
<mask id="mask0_2214_183786" style="mask-type:alpha" maskUnits="userSpaceOnUse" x="0" y="0" width="24" height="24">
<rect width="24" height="24" fill="#D9D9D9"/>
</mask>
<g mask="url(#mask0_2214_183786)">
<path d="M22.1501 6.34206L10.6043 17.7831C10.3124 18.0723 9.83925 18.0723 9.5474 17.7831C9.52219 17.7581 9.49916 17.7318 9.47831 17.7044C9.45094 17.6841 9.42452 17.6613 9.39943 17.6365L1.84047 10.146C1.76201 10.0683 1.76144 9.94164 1.83919 9.86318C1.87674 9.82528 1.92789 9.80396 1.98125 9.80396H3.52648C3.5792 9.80396 3.6298 9.82478 3.66725 9.86189L10.0755 16.2118L20.3233 6.05793C20.3608 6.02082 20.4114 6 20.4641 6H22.0093C22.1198 6 22.2093 6.08954 22.2093 6.2C22.2093 6.25336 22.188 6.30451 22.1501 6.34206Z" fill="#E7E7E7"/>
</g>
</svg>
