<svg width="24" height="24" viewBox="0 0 24 24" fill="none" xmlns="http://www.w3.org/2000/svg">
<mask id="mask0_2010_14432" style="mask-type:alpha" maskUnits="userSpaceOnUse" x="0" y="0" width="24" height="24">
<rect width="24" height="24" fill="#D9D9D9"/>
</mask>
<g mask="url(#mask0_2010_14432)">
<path d="M7 22C8.03333 22 8.87917 21.7416 9.5375 21.225C10.1958 20.7083 10.7 19.95 11.05 18.95C11.3333 18.1166 11.6042 17.5333 11.8625 17.2C12.1208 16.8666 12.7167 16.3333 13.65 15.6C14.6833 14.7666 15.5 13.825 16.1 12.775C16.7 11.725 17 10.4666 17 8.99995C17 7.01662 16.3292 5.35412 14.9875 4.01245C13.6458 2.67078 11.9833 1.99995 10 1.99995C8.01667 1.99995 6.35417 2.67078 5.0125 4.01245C3.67083 5.35412 3 7.01662 3 8.99995H5C5 7.58328 5.47917 6.39578 6.4375 5.43745C7.39583 4.47912 8.58333 3.99995 10 3.99995C11.4167 3.99995 12.6042 4.47912 13.5625 5.43745C14.5208 6.39578 15 7.58328 15 8.99995C15 10.1333 14.775 11.1 14.325 11.9C13.875 12.7 13.2333 13.4166 12.4 14.05C11.5333 14.6833 10.8583 15.3 10.375 15.9C9.89167 16.5 9.53333 17.15 9.3 17.85C9.06667 18.5833 8.7875 19.125 8.4625 19.475C8.1375 19.825 7.65 20 7 20C6.45 20 5.97917 19.8041 5.5875 19.4125C5.19583 19.0208 5 18.55 5 18H3C3 19.1 3.39167 20.0416 4.175 20.825C4.95833 21.6083 5.9 22 7 22ZM17.8 16.75C18.7833 15.75 19.5625 14.5875 20.1375 13.2625C20.7125 11.9375 21 10.5166 21 8.99995C21 7.46662 20.7125 6.03328 20.1375 4.69995C19.5625 3.36662 18.7833 2.19995 17.8 1.19995L16.35 2.59995C17.1833 3.43328 17.8333 4.39578 18.3 5.48745C18.7667 6.57912 19 7.74995 19 8.99995C19 10.2333 18.7667 11.3916 18.3 12.475C17.8333 13.5583 17.1833 14.5166 16.35 15.35L17.8 16.75ZM10 11.5C10.7 11.5 11.2917 11.2541 11.775 10.7625C12.2583 10.2708 12.5 9.68328 12.5 8.99995C12.5 8.29995 12.2583 7.70829 11.775 7.22495C11.2917 6.74162 10.7 6.49995 10 6.49995C9.3 6.49995 8.70833 6.74162 8.225 7.22495C7.74167 7.70829 7.5 8.29995 7.5 8.99995C7.5 9.68328 7.74167 10.2708 8.225 10.7625C8.70833 11.2541 9.3 11.5 10 11.5Z" fill="#E7E7E7"/>
</g>
</svg>
