<svg width="20" height="20" viewBox="0 0 20 20" fill="none" xmlns="http://www.w3.org/2000/svg">
<mask id="mask0_2258_23171" style="mask-type:alpha" maskUnits="userSpaceOnUse" x="0" y="0" width="20" height="20">
<rect width="20" height="20" fill="#D9D9D9"/>
</mask>
<g mask="url(#mask0_2258_23171)">
<path d="M9.9987 0.833252C15.0613 0.833252 19.1654 4.93731 19.1654 9.99992C19.1654 15.0625 15.0613 19.1666 9.9987 19.1666C4.93609 19.1666 0.832031 15.0625 0.832031 9.99992C0.832031 4.93731 4.93609 0.833252 9.9987 0.833252ZM9.9987 2.08325C5.62644 2.08325 2.08203 5.62766 2.08203 9.99992C2.08203 14.3722 5.62644 17.9166 9.9987 17.9166C14.371 17.9166 17.9154 14.3722 17.9154 9.99992C17.9154 5.62766 14.371 2.08325 9.9987 2.08325ZM10.832 13.4999V14.4166C10.832 14.5086 10.7574 14.5833 10.6654 14.5833H9.7487C9.65665 14.5833 9.58203 14.5086 9.58203 14.4166V13.4999C9.58203 13.4079 9.65665 13.3333 9.7487 13.3333H10.6654C10.7574 13.3333 10.832 13.4079 10.832 13.4999ZM9.9987 4.99992C11.6095 4.99992 12.9154 6.30575 12.9154 7.91658C12.9154 9.23768 12.037 10.3536 10.8325 10.7123L10.8321 11.9166C10.832 12.0086 10.7574 12.0832 10.6654 12.0833H9.7487C9.65665 12.0833 9.58203 12.0086 9.58203 11.9166V9.74992C9.58203 9.65787 9.65665 9.58325 9.7487 9.58325H9.9987C10.9192 9.58325 11.6654 8.83706 11.6654 7.91658C11.6654 6.99611 10.9192 6.24992 9.9987 6.24992C9.07822 6.24992 8.33203 6.99611 8.33203 7.91658H7.08203C7.08203 6.30575 8.38787 4.99992 9.9987 4.99992Z" fill="#E7E7E7"/>
</g>
</svg>
