<svg width="24" height="24" viewBox="0 0 24 24" fill="none" xmlns="http://www.w3.org/2000/svg">
<mask id="mask0_2010_14414" style="mask-type:alpha" maskUnits="userSpaceOnUse" x="0" y="0" width="24" height="24">
<rect width="24" height="24" fill="#D9D9D9"/>
</mask>
<g mask="url(#mask0_2010_14414)">
<path d="M9.94844 21C9.49844 21 9.06927 20.9042 8.66094 20.7125C8.2526 20.5208 7.90677 20.25 7.62344 19.9L1.14844 11.925L1.79844 11.3C2.1151 10.9833 2.4901 10.8 2.92344 10.75C3.35677 10.7 3.74844 10.8 4.09844 11.05L6.99844 13.075V3C6.99844 2.71667 7.09427 2.47917 7.28594 2.2875C7.4776 2.09583 7.7151 2 7.99844 2C8.28177 2 8.51927 2.09583 8.71094 2.2875C8.9026 2.47917 8.99844 2.71667 8.99844 3V16.925L6.22344 14.975L9.17344 18.625C9.27344 18.7417 9.3901 18.8333 9.52344 18.9C9.65677 18.9667 9.79844 19 9.94844 19H16.9984C17.5484 19 18.0193 18.8042 18.4109 18.4125C18.8026 18.0208 18.9984 17.55 18.9984 17V10C18.9984 9.71667 19.0943 9.47917 19.2859 9.2875C19.4776 9.09583 19.7151 9 19.9984 9C20.2818 9 20.5193 9.09583 20.7109 9.2875C20.9026 9.47917 20.9984 9.71667 20.9984 10V17C20.9984 18.1 20.6068 19.0417 19.8234 19.825C19.0401 20.6083 18.0984 21 16.9984 21H9.94844ZM10.9984 13V7C10.9984 6.71667 11.0943 6.47917 11.2859 6.2875C11.4776 6.09583 11.7151 6 11.9984 6C12.2818 6 12.5193 6.09583 12.7109 6.2875C12.9026 6.47917 12.9984 6.71667 12.9984 7V13H10.9984ZM14.9984 13V8C14.9984 7.71667 15.0943 7.47917 15.2859 7.2875C15.4776 7.09583 15.7151 7 15.9984 7C16.2818 7 16.5193 7.09583 16.7109 7.2875C16.9026 7.47917 16.9984 7.71667 16.9984 8V13H14.9984Z" fill="#E7E7E7"/>
</g>
</svg>
