<svg width="24" height="24" viewBox="0 0 24 24" fill="none" xmlns="http://www.w3.org/2000/svg">
<mask id="mask0_2010_14408" style="mask-type:alpha" maskUnits="userSpaceOnUse" x="0" y="0" width="24" height="24">
<rect width="24" height="24" fill="#D9D9D9"/>
</mask>
<g mask="url(#mask0_2010_14408)">
<path d="M10.4719 22C10.0052 22 9.56771 21.9 9.15938 21.7C8.75104 21.5 8.40521 21.2167 8.12188 20.85L2.67188 13.925L3.14687 13.425C3.48021 13.075 3.88021 12.8667 4.34688 12.8C4.81354 12.7333 5.24688 12.825 5.64688 13.075L7.49688 14.2V6C7.49688 5.71667 7.59271 5.47917 7.78438 5.2875C7.97604 5.09583 8.21354 5 8.49688 5C8.78021 5 9.02188 5.09583 9.22188 5.2875C9.42188 5.47917 9.52187 5.71667 9.52187 6V17.8L7.09688 16.3L9.69688 19.625C9.79688 19.7417 9.91354 19.8333 10.0469 19.9C10.1802 19.9667 10.3219 20 10.4719 20H15.9969C16.5469 20 17.0177 19.8042 17.4094 19.4125C17.801 19.0208 17.9969 18.55 17.9969 18V14C17.9969 13.7167 17.901 13.4792 17.7094 13.2875C17.5177 13.0958 17.2802 13 16.9969 13H11.5219V11H16.9969C17.8302 11 18.5385 11.2917 19.1219 11.875C19.7052 12.4583 19.9969 13.1667 19.9969 14V18C19.9969 19.1 19.6052 20.0417 18.8219 20.825C18.0385 21.6083 17.0969 22 15.9969 22H10.4719ZM4.17188 8.5C3.95521 8.13333 3.78854 7.7375 3.67188 7.3125C3.55521 6.8875 3.49687 6.45 3.49687 6C3.49687 4.61667 3.98438 3.4375 4.95938 2.4625C5.93438 1.4875 7.11354 1 8.49688 1C8.94688 1 9.38021 1.05417 9.79688 1.1625C10.2135 1.27083 10.6052 1.43333 10.9719 1.65C11.7552 2.08333 12.3719 2.69167 12.8219 3.475C13.2719 4.25833 13.4969 5.1 13.4969 6C13.4969 6.45 13.4385 6.8875 13.3219 7.3125C13.2052 7.7375 13.0385 8.13333 12.8219 8.5L11.0969 7.5C11.2302 7.26667 11.3302 7.02917 11.3969 6.7875C11.4635 6.54583 11.4969 6.28333 11.4969 6C11.4969 5.46667 11.3594 4.96667 11.0844 4.5C10.8094 4.03333 10.4385 3.66667 9.97188 3.4C9.75521 3.26667 9.52187 3.16667 9.27187 3.1C9.02187 3.03333 8.76354 3 8.49688 3C7.66354 3 6.95521 3.29167 6.37188 3.875C5.78854 4.45833 5.49688 5.16667 5.49688 6C5.49688 6.28333 5.53021 6.54583 5.59687 6.7875C5.66354 7.02917 5.76354 7.26667 5.89688 7.5L4.17188 8.5ZM13.9719 3.4L14.9719 1.65C15.7552 2.08333 16.3719 2.69167 16.8219 3.475C17.2719 4.25833 17.4969 5.1 17.4969 6C17.4969 6.45 17.4385 6.8875 17.3219 7.3125C17.2052 7.7375 17.0385 8.13333 16.8219 8.5L15.0969 7.5C15.2302 7.26667 15.3302 7.02917 15.3969 6.7875C15.4635 6.54583 15.4969 6.28333 15.4969 6C15.4969 5.46667 15.3594 4.96667 15.0844 4.5C14.8094 4.03333 14.4385 3.66667 13.9719 3.4Z" fill="#E7E7E7"/>
</g>
</svg>
